<svg xmlns="http://www.w3.org/2000/svg" viewBox="0 0 400 400" width="100%" height="100%">
  <defs>
    <linearGradient id="bg" x1="0%" y1="0%" x2="100%" y2="100%">
      <stop offset="0%" stop-color="#FAF6F0" />
      <stop offset="100%" stop-color="#EBE3D7" />
    </linearGradient>
    <filter id="shadow" x="-10%" y="-10%" width="130%" height="130%">
      <feDropShadow dx="0" dy="8" stdDeviation="12" flood-color="#1F1D1A" flood-opacity="0.08" />
    </filter>
  </defs>
  <rect width="400" height="400" rx="16" fill="url(#bg)" />
  <circle cx="200" cy="200" r="140" fill="#EFE8DE" opacity="0.65" />
  
    <g filter="url(#shadow)" transform="translate(200, 200)">
      <!-- Amber Glass Bottle -->
      <rect x="-35" y="-30" width="70" height="110" rx="10" fill="#B85D36" />
      <!-- Bottle neck & Cork -->
      <path d="M -15 -30 L -15 -60 L 15 -60 L 15 -30" fill="#9E4723" />
      <rect x="-18" y="-72" width="36" height="16" rx="4" fill="#D4A373" />
      <!-- Label -->
      <rect x="-26" y="-5" width="52" height="60" rx="4" fill="#FAF6EE" />
      <line x1="-16" y1="12" x2="16" y2="12" stroke="#B85D36" stroke-width="2.5" stroke-linecap="round" />
      <line x1="-12" y1="22" x2="12" y2="22" stroke="#B85D36" stroke-width="2" stroke-linecap="round" />
      <line x1="-18" y1="32" x2="18" y2="32" stroke="#6E675E" stroke-width="1.5" stroke-linecap="round" />
      <!-- Sprig / Botanical illustration on side -->
      <path d="M 45 40 Q 60 15 50 -10" fill="none" stroke="#8A9A5B" stroke-width="3" stroke-linecap="round" />
      <ellipse cx="54" cy="22" rx="8" ry="4" transform="rotate(-30 54 22)" fill="#8A9A5B" />
      <ellipse cx="44" cy="5" rx="8" ry="4" transform="rotate(20 44 5)" fill="#8A9A5B" />
      <ellipse cx="50" cy="-10" rx="7" ry="3.5" transform="rotate(-40 50 -10)" fill="#8A9A5B" />
    </g>
  
</svg>